HIERARCHY
ROOT Hips
{
	OFFSET 0.00000 0.00000 0.00000
	CHANNELS 6 Xposition Yposition Zposition Zrotation Yrotation Xrotation 
	JOINT LHipJoint
	{
		OFFSET 0 0 0
		CHANNELS 3 Zrotation Yrotation Xrotation
		JOINT LeftHip
		{
			OFFSET 2.36090 -1.39315 1.24752
			CHANNELS 3 Zrotation Yrotation Xrotation
			JOINT LeftKnee
			{
				OFFSET 2.06810 -5.68207 0.00000
				CHANNELS 3 Zrotation Yrotation Xrotation
				JOINT LeftAnkle
				{
					OFFSET 2.46631 -6.77613 0.00000
					CHANNELS 3 Zrotation Yrotation Xrotation
					JOINT LeftToe
					{
						OFFSET 0.26031 -0.71520 1.99545
						CHANNELS 3 Zrotation Yrotation Xrotation
						End Site
						{
							OFFSET 0.00000 -0.00000 1.05957
						}
					}
				}
			}
		}
	}
	JOINT RHipJoint
	{
		OFFSET 0 0 0
		CHANNELS 3 Zrotation Yrotation Xrotation
		JOINT RightHip
		{
			OFFSET -2.25243 -1.39315 1.24752
			CHANNELS 3 Zrotation Yrotation Xrotation
			JOINT RightKnee
			{
				OFFSET -2.17343 -5.97145 0.00000
				CHANNELS 3 Zrotation Yrotation Xrotation
				JOINT RightAnkle
				{
					OFFSET -2.52372 -6.93386 0.00000
					CHANNELS 3 Zrotation Yrotation Xrotation
					JOINT RightToe
					{
						OFFSET -0.22538 -0.61923 2.11447
						CHANNELS 3 Zrotation Yrotation Xrotation
						End Site
						{
							OFFSET -0.00000 -0.00000 1.10506
						}
					}
				}
			}
		}
	}
	JOINT lowerback
	{
		OFFSET 0 0 0
		CHANNELS 3 Zrotation Yrotation Xrotation
		JOINT Chest
		{
			OFFSET 0.01594 2.13103 0.08007
			CHANNELS 3 Zrotation Yrotation Xrotation
			JOINT Chest2
			{
				OFFSET 0.01393 2.09723 0.18338
				CHANNELS 3 Zrotation Yrotation Xrotation
				JOINT lowerneck
				{
					OFFSET 0 0 0
					CHANNELS 3 Zrotation Yrotation Xrotation
					JOINT Neck
					{
						OFFSET 0.05351 1.38915 0.32494
						CHANNELS 3 Zrotation Yrotation Xrotation
						JOINT Head
						{
							OFFSET 0.00711 1.45992 -0.21666
							CHANNELS 3 Zrotation Yrotation Xrotation
							End Site
							{
								OFFSET -0.00433 1.47702 -0.11056
							}
						}
					}
				}
				JOINT LeftCollar
				{
					OFFSET 0 0 0
					CHANNELS 3 Zrotation Yrotation Xrotation
					JOINT LeftShoulder
					{
						OFFSET 2.87198 0.92249 0.11132
CHANNELS 3 Zrotation Xrotation Yrotation
						JOINT LeftElbow
						{
OFFSET 0 -5.527310 0.000000
CHANNELS 3 Zrotation Xrotation Yrotation
							JOINT LeftWrist
							{
OFFSET 0 -3.110590 0.000000
CHANNELS 3 Zrotation Xrotation Yrotation
								JOINT lhand
								{
									OFFSET 0 0 0
CHANNELS 3 Zrotation Xrotation Yrotation
									JOINT LFingers
									{
OFFSET 0 -0.419630 0.000000
CHANNELS 3 Zrotation Xrotation Yrotation
										End Site
										{
OFFSET 0 -0.338310 0.000000
										}
									}
								}
								JOINT LThumb
								{
OFFSET 0 0.000000 0.000000
CHANNELS 3 Zrotation Xrotation Yrotation
									End Site
									{
OFFSET 0 -0.343480 0.343480
									}
								}
							}
						}
					}
				}
				JOINT RightCollar
				{
					OFFSET 0 0 0
					CHANNELS 3 Zrotation Yrotation Xrotation
					JOINT RightShoulder
					{
						OFFSET -2.94710 0.68072 0.32187
CHANNELS 3 Zrotation Xrotation Yrotation
						JOINT RightElbow
						{
OFFSET 0 -5.253960 -0.000000
CHANNELS 3 Zrotation Xrotation Yrotation
							JOINT RightWrist
							{
OFFSET 0 -3.105670 0.000000
CHANNELS 3 Zrotation Xrotation Yrotation
								JOINT rhand
								{
									OFFSET 0 0 0
CHANNELS 3 Zrotation Xrotation Yrotation
									JOINT RFingers
									{
OFFSET 0 -0.498680 0.000000
CHANNELS 3 Zrotation Xrotation Yrotation
										End Site
										{
OFFSET 0 -0.402040 0.000000
										}
									}
								}
								JOINT RThumb
								{
OFFSET 0 0.000000 0.000000
CHANNELS 3 Zrotation Xrotation Yrotation
									End Site
									{
OFFSET 0 -0.408180 0.408180
									}
								}
							}
						}
					}
				}
			}
		}
	}
}
MOTION
Frames: 5
Frame Time: 0.008333333333333333
1.571500 15.695900 31.635300 -150.647000 -82.817000 168.360000 0.000000 0.000000 0.000000 0.000000 0.000000 0.000000 0.000000 0.000000 0.000000 0.000000 0.000000 0.000000 0.000000 0.000000 0.000000 0.000000 0.000000 0.000000 22.373500 27.771500 -19.337500 -1.907500 -8.670700 24.770600 -0.359800 -6.057700 -15.165200 -0.063400 -1.624400 4.468600 1.020100 0.894700 -27.003600 1.860500 -0.020300 -7.614000 1.419200 -0.316100 6.468400 6.374000 4.967600 -20.528100 -2.441600 5.379200 26.524000 -1.121500 2.607400 12.460800 0.000000 -0.000000 0.000000 8.469800 10.892500 -45.205700 16.361300 -26.008100 3.803000 29.389500 -33.070400 -3.854200 0.000000 0.000000 0.000000 -7.125000 0.000000 0.000000 2.276900 34.394300 0.593000 0.000000 -0.000000 0.000000 -4.751000 17.319300 23.027600 -12.210700 -20.119900 -2.174200 -20.320800 -4.845300 29.357800 0.000000 0.000000 0.000000 7.125000 0.000000 -0.000000 12.457700 60.505300 -4.753000
1.574811 15.696041 31.636216 -150.744222 -82.787340 168.456518 0.000000 0.000000 0.000000 0.000000 0.000000 0.000000 0.000000 0.000000 0.000000 0.000000 0.000000 0.000000 0.000000 0.000000 0.000000 0.000000 0.000000 0.000000 22.367793 27.765723 -19.365117 -1.907711 -8.671193 24.772079 -0.359659 -6.017684 -15.128425 -0.061075 -1.594036 4.384905 1.008264 0.876524 -26.973518 1.877760 -0.041435 -7.617170 1.438151 -0.326315 6.450506 6.406689 5.007334 -20.556562 -2.433569 5.421048 26.536611 -1.116005 2.630226 12.474749 0.000000 0.000000 0.000000 8.476493 10.944493 -45.311587 16.386592 -26.041987 3.814131 29.469884 -33.196295 -3.845464 0.000000 0.000000 0.000000 -7.125000 0.000000 0.000000 2.343335 34.387396 0.610754 0.000000 0.000000 0.000000 -4.811165 17.226869 22.614054 -12.117423 -19.980478 -2.142286 -20.226255 -4.630848 29.053946 0.000000 0.000000 0.000000 7.125000 0.000000 0.000000 12.371398 60.181367 -4.624075
1.578163 15.696427 31.636682 -150.918339 -82.759971 168.625431 0.000000 0.000000 0.000000 0.000000 0.000000 0.000000 0.000000 0.000000 0.000000 0.000000 0.000000 0.000000 0.000000 0.000000 0.000000 0.000000 0.000000 0.000000 22.352148 27.770171 -19.389584 -1.910377 -8.676881 24.789674 -0.361563 -5.974191 -15.116354 -0.062881 -1.617252 4.448945 0.984772 0.856302 -26.942944 1.889622 -0.061139 -7.616619 1.458289 -0.335672 6.436538 6.450013 5.041997 -20.565310 -2.433963 5.455656 26.525989 -1.117013 2.650189 12.475815 0.000000 0.000000 0.000000 8.487767 10.995913 -45.426555 16.414215 -26.079064 3.826285 29.534644 -33.254376 -3.876812 0.000000 0.000000 0.000000 -7.125000 0.000000 0.000000 2.396927 34.425811 0.622454 0.000000 0.000000 0.000000 -4.859632 17.145971 22.246072 -12.037112 -19.860280 -2.114912 -20.220671 -4.488096 28.696306 0.000000 0.000000 0.000000 7.125000 0.000000 0.000000 12.158465 59.824550 -4.440465
1.581477 15.696889 31.636721 -151.180930 -82.733939 168.876503 0.000000 0.000000 0.000000 0.000000 0.000000 0.000000 0.000000 0.000000 0.000000 0.000000 0.000000 0.000000 0.000000 0.000000 0.000000 0.000000 0.000000 0.000000 22.327403 27.776297 -19.410652 -1.914792 -8.686276 24.818786 -0.364911 -5.925542 -15.119554 -0.066798 -1.667872 4.588533 0.944434 0.834989 -26.908429 1.896958 -0.076868 -7.613571 1.484369 -0.342966 6.423329 6.484297 5.071871 -20.573267 -2.426209 5.484058 26.512525 -1.114466 2.667641 12.474690 0.000000 0.000000 0.000000 8.503644 11.046794 -45.546970 16.442705 -26.117311 3.838814 29.557806 -33.291709 -3.920895 0.000000 0.000000 0.000000 -7.125000 0.000000 0.000000 2.416152 34.477202 0.624422 0.000000 0.000000 0.000000 -4.914485 17.090980 21.995481 -11.985717 -19.783270 -2.097459 -20.283693 -4.471445 28.329575 0.000000 0.000000 0.000000 7.125000 0.000000 0.000000 11.868101 59.474456 -4.232003
1.584436 15.696818 31.636227 -151.614907 -82.706251 169.283003 0.000000 0.000000 0.000000 0.000000 0.000000 0.000000 0.000000 0.000000 0.000000 0.000000 0.000000 0.000000 0.000000 0.000000 0.000000 0.000000 0.000000 0.000000 22.292671 27.752696 -19.425869 -1.919090 -8.695434 24.847248 -0.368081 -5.863123 -15.109339 -0.066164 -1.659629 4.565778 0.860245 0.815686 -26.855239 1.901045 -0.077291 -7.611528 1.536925 -0.342755 6.399305 6.431530 5.095895 -20.651256 -2.344345 5.507377 26.571633 -1.068955 2.682788 12.510620 0.000000 0.000000 0.000000 8.526259 11.097026 -45.661593 16.466940 -26.149648 3.849452 29.423174 -33.476078 -3.880527 0.000000 0.000000 0.000000 -7.125000 0.000000 0.000000 2.304769 34.425702 0.598496 0.000000 0.000000 0.000000 -5.046581 17.127474 22.184641 -12.036089 -19.858793 -2.114578 -20.369291 -4.841593 28.117800 0.000000 0.000000 0.000000 7.125000 0.000000 0.000000 11.650901 59.283041 -4.099838
